<svg width="375" height="158" viewBox="0 0 375 158" fill="none" xmlns="http://www.w3.org/2000/svg">
<path d="M0.5 0.5H374.5V153C374.5 155.485 372.485 157.5 370 157.5H5C2.51471 157.5 0.5 155.485 0.5 153V0.5Z" fill="white"/>
<path d="M105.205 66.3407H107.858C107.82 64.0076 105.902 62.3968 102.987 62.3968C100.117 62.3968 98.0141 63.982 98.0269 66.3598C98.0205 68.2902 99.382 69.3961 101.594 69.9266L103.019 70.2846C104.445 70.6297 105.237 71.0388 105.244 71.9209C105.237 72.8797 104.329 73.5317 102.923 73.5317C101.485 73.5317 100.449 72.8669 100.36 71.5566H97.6817C97.752 74.3883 99.7783 75.852 102.955 75.852C106.151 75.852 108.03 74.3243 108.037 71.9273C108.03 69.7476 106.388 68.5907 104.112 68.0793L102.936 67.7981C101.798 67.536 100.846 67.1141 100.865 66.1745C100.865 65.3307 101.613 64.7107 102.968 64.7107C104.291 64.7107 105.103 65.3115 105.205 66.3407ZM116.144 71.4863C116.15 72.803 115.249 73.4934 114.271 73.4934C113.242 73.4934 112.577 72.7711 112.57 71.6141V65.8485H109.847V72.0999C109.854 74.3946 111.196 75.7945 113.171 75.7945C114.648 75.7945 115.709 75.0339 116.15 73.8833H116.252V75.6667H118.867V65.8485H116.144V71.4863ZM123.844 75.852C125.295 75.852 126.235 75.2192 126.714 74.3052H126.791V75.6667H129.373V69.0445C129.373 66.705 127.392 65.7206 125.206 65.7206C122.854 65.7206 121.307 66.8456 120.93 68.6354L123.448 68.84C123.633 68.188 124.215 67.7086 125.193 67.7086C126.12 67.7086 126.65 68.1752 126.65 68.9806V69.0189C126.65 69.6517 125.979 69.7348 124.273 69.901C122.329 70.08 120.584 70.732 120.584 72.9245C120.584 74.8677 121.972 75.852 123.844 75.852ZM124.624 73.9728C123.787 73.9728 123.186 73.5829 123.186 72.835C123.186 72.0679 123.819 71.6908 124.778 71.5566C125.372 71.4735 126.344 71.3329 126.67 71.1155V72.1574C126.67 73.1866 125.82 73.9728 124.624 73.9728ZM143.821 68.6482C143.578 66.8392 142.121 65.7206 139.641 65.7206C137.129 65.7206 135.473 66.884 135.479 68.776C135.473 70.2462 136.4 71.1986 138.318 71.5821L140.018 71.9209C140.874 72.0935 141.264 72.4067 141.277 72.8989C141.264 73.4806 140.631 73.8961 139.679 73.8961C138.707 73.8961 138.062 73.4806 137.896 72.6816L135.217 72.8222C135.473 74.7015 137.071 75.8584 139.673 75.8584C142.217 75.8584 144.038 74.5608 144.045 72.6241C144.038 71.205 143.112 70.3549 141.207 69.965L139.43 69.607C138.516 69.4089 138.177 69.0956 138.183 68.6226C138.177 68.0346 138.842 67.651 139.685 67.651C140.631 67.651 141.194 68.1688 141.328 68.8016L143.821 68.6482ZM148.559 75.852C150.01 75.852 150.95 75.2192 151.429 74.3052H151.506V75.6667H154.088V69.0445C154.088 66.705 152.107 65.7206 149.921 65.7206C147.568 65.7206 146.022 66.8456 145.644 68.6354L148.163 68.84C148.348 68.188 148.93 67.7086 149.908 67.7086C150.835 67.7086 151.365 68.1752 151.365 68.9806V69.0189C151.365 69.6517 150.694 69.7348 148.987 69.901C147.044 70.08 145.299 70.732 145.299 72.9245C145.299 74.8677 146.686 75.852 148.559 75.852ZM149.339 73.9728C148.502 73.9728 147.901 73.5829 147.901 72.835C147.901 72.0679 148.534 71.6908 149.492 71.5566C150.087 71.4735 151.059 71.3329 151.384 71.1155V72.1574C151.384 73.1866 150.534 73.9728 149.339 73.9728ZM160.637 75.8584C163.251 75.8584 164.894 74.3243 165.022 72.0679H162.452C162.293 73.1162 161.602 73.7043 160.669 73.7043C159.397 73.7043 158.572 72.6368 158.572 70.7576C158.572 68.9039 159.403 67.8428 160.669 67.8428C161.666 67.8428 162.305 68.5012 162.452 69.4792H165.022C164.907 67.21 163.187 65.7206 160.624 65.7206C157.646 65.7206 155.805 67.7853 155.805 70.7959C155.805 73.781 157.614 75.8584 160.637 75.8584ZM171.201 75.8584C174.18 75.8584 176.034 73.8194 176.034 70.7959C176.034 67.7533 174.18 65.7206 171.201 65.7206C168.223 65.7206 166.369 67.7533 166.369 70.7959C166.369 73.8194 168.223 75.8584 171.201 75.8584ZM171.214 73.7491C169.84 73.7491 169.137 72.4898 169.137 70.7767C169.137 69.0637 169.84 67.7981 171.214 67.7981C172.563 67.7981 173.266 69.0637 173.266 70.7767C173.266 72.4898 172.563 73.7491 171.214 73.7491ZM180.527 62.5758H177.804V75.6667H180.527V62.5758ZM185.508 75.852C186.959 75.852 187.899 75.2192 188.378 74.3052H188.455V75.6667H191.038V69.0445C191.038 66.705 189.056 65.7206 186.87 65.7206C184.518 65.7206 182.971 66.8456 182.594 68.6354L185.112 68.84C185.297 68.188 185.879 67.7086 186.857 67.7086C187.784 67.7086 188.315 68.1752 188.315 68.9806V69.0189C188.315 69.6517 187.643 69.7348 185.937 69.901C183.994 70.08 182.248 70.732 182.248 72.9245C182.248 74.8677 183.636 75.852 185.508 75.852ZM186.288 73.9728C185.451 73.9728 184.85 73.5829 184.85 72.835C184.85 72.0679 185.483 71.6908 186.442 71.5566C187.036 71.4735 188.008 71.3329 188.334 71.1155V72.1574C188.334 73.1866 187.484 73.9728 186.288 73.9728ZM201.791 75.8584C204.22 75.8584 205.856 74.6759 206.239 72.8542L203.721 72.688C203.446 73.4358 202.743 73.8258 201.835 73.8258C200.474 73.8258 199.611 72.9245 199.611 71.4607V71.4543H206.297V70.7064C206.297 67.3698 204.277 65.7206 201.682 65.7206C198.793 65.7206 196.92 67.7725 196.92 70.8023C196.92 73.9152 198.767 75.8584 201.791 75.8584ZM199.611 69.7668C199.668 68.6482 200.519 67.7533 201.727 67.7533C202.909 67.7533 203.727 68.5971 203.734 69.7668H199.611ZM216.243 68.6482C216 66.8392 214.543 65.7206 212.063 65.7206C209.551 65.7206 207.895 66.884 207.901 68.776C207.895 70.2462 208.822 71.1986 210.739 71.5821L212.44 71.9209C213.296 72.0935 213.686 72.4067 213.699 72.8989C213.686 73.4806 213.053 73.8961 212.101 73.8961C211.129 73.8961 210.484 73.4806 210.318 72.6816L207.639 72.8222C207.895 74.7015 209.493 75.8584 212.095 75.8584C214.639 75.8584 216.46 74.5608 216.467 72.6241C216.46 71.205 215.533 70.3549 213.629 69.965L211.852 69.607C210.938 69.4089 210.599 69.0956 210.605 68.6226C210.599 68.0346 211.264 67.651 212.107 67.651C213.053 67.651 213.616 68.1688 213.75 68.8016L216.243 68.6482ZM223.404 65.8485H221.556V63.4962H218.833V65.8485H217.491V67.8939H218.833V73.0076C218.821 74.9316 220.131 75.884 222.106 75.8009C222.809 75.7753 223.308 75.6347 223.583 75.5452L223.154 73.5189C223.02 73.5445 222.733 73.6084 222.477 73.6084C221.934 73.6084 221.556 73.4039 221.556 72.6496V67.8939H223.404V65.8485ZM227.977 75.852C229.428 75.852 230.368 75.2192 230.847 74.3052H230.924V75.6667H233.506V69.0445C233.506 66.705 231.525 65.7206 229.339 65.7206C226.986 65.7206 225.44 66.8456 225.062 68.6354L227.581 68.84C227.766 68.188 228.348 67.7086 229.326 67.7086C230.253 67.7086 230.783 68.1752 230.783 68.9806V69.0189C230.783 69.6517 230.112 69.7348 228.405 69.901C226.462 70.08 224.717 70.732 224.717 72.9245C224.717 74.8677 226.104 75.852 227.977 75.852ZM228.757 73.9728C227.92 73.9728 227.319 73.5829 227.319 72.835C227.319 72.0679 227.952 71.6908 228.91 71.5566C229.505 71.4735 230.476 71.3329 230.802 71.1155V72.1574C230.802 73.1866 229.952 73.9728 228.757 73.9728ZM228.463 64.5829H230.387L232.337 61.6745H229.818L228.463 64.5829ZM248.938 65.8485H246.055L244.023 72.8733H243.921L241.881 65.8485H239.005L242.438 75.6667H245.506L248.938 65.8485ZM252.85 75.852C254.301 75.852 255.241 75.2192 255.72 74.3052H255.797V75.6667H258.379V69.0445C258.379 66.705 256.398 65.7206 254.212 65.7206C251.859 65.7206 250.313 66.8456 249.935 68.6354L252.454 68.84C252.639 68.188 253.221 67.7086 254.199 67.7086C255.126 67.7086 255.656 68.1752 255.656 68.9806V69.0189C255.656 69.6517 254.985 69.7348 253.278 69.901C251.335 70.08 249.59 70.732 249.59 72.9245C249.59 74.8677 250.977 75.852 252.85 75.852ZM253.63 73.9728C252.793 73.9728 252.192 73.5829 252.192 72.835C252.192 72.0679 252.825 71.6908 253.783 71.5566C254.378 71.4735 255.35 71.3329 255.676 71.1155V72.1574C255.676 73.1866 254.825 73.9728 253.63 73.9728ZM260.441 75.6667H268.693V73.4934H264.014V73.4231L268.527 67.6191V65.8485H260.607V68.0218H265.248V68.0921L260.441 74.0431V75.6667ZM270.775 75.6667H273.498V65.8485H270.775V75.6667ZM272.143 64.5829C272.955 64.5829 273.62 63.9628 273.62 63.2022C273.62 62.4479 272.955 61.8279 272.143 61.8279C271.338 61.8279 270.673 62.4479 270.673 63.2022C270.673 63.9628 271.338 64.5829 272.143 64.5829ZM278.479 75.852C279.93 75.852 280.87 75.2192 281.349 74.3052H281.426V75.6667H284.008V69.0445C284.008 66.705 282.027 65.7206 279.841 65.7206C277.488 65.7206 275.941 66.8456 275.564 68.6354L278.083 68.84C278.268 68.188 278.85 67.7086 279.828 67.7086C280.755 67.7086 281.285 68.1752 281.285 68.9806V69.0189C281.285 69.6517 280.614 69.7348 278.907 69.901C276.964 70.08 275.219 70.732 275.219 72.9245C275.219 74.8677 276.606 75.852 278.479 75.852ZM279.259 73.9728C278.422 73.9728 277.821 73.5829 277.821 72.835C277.821 72.0679 278.454 71.6908 279.412 71.5566C280.007 71.4735 280.978 71.3329 281.304 71.1155V72.1574C281.304 73.1866 280.454 73.9728 279.259 73.9728Z" fill="#333333"/>
<path d="M147.536 107L148.56 104.116H152.677L153.701 107H154.994L151.255 96.8182H149.982L146.244 107H147.536ZM148.948 103.023L150.579 98.429H150.658L152.289 103.023H148.948ZM159.304 107.159C160.776 107.159 161.273 106.244 161.531 105.827H161.671V107H162.804V96.8182H161.631V100.577H161.531C161.273 100.179 160.815 99.2642 159.324 99.2642C157.395 99.2642 156.063 100.795 156.063 103.202C156.063 105.628 157.395 107.159 159.304 107.159ZM159.463 106.105C157.992 106.105 157.236 104.812 157.236 103.182C157.236 101.571 157.972 100.318 159.463 100.318C160.895 100.318 161.651 101.472 161.651 103.182C161.651 104.912 160.875 106.105 159.463 106.105ZM165.116 107H166.289V99.3636H165.116V107ZM165.712 98.0909C166.17 98.0909 166.548 97.733 166.548 97.2955C166.548 96.858 166.17 96.5 165.712 96.5C165.255 96.5 164.877 96.858 164.877 97.2955C164.877 97.733 165.255 98.0909 165.712 98.0909ZM171.54 107.159C173.231 107.159 174.344 106.125 174.543 104.773H173.37C173.151 105.608 172.455 106.105 171.54 106.105C170.148 106.105 169.253 104.952 169.253 103.182C169.253 101.452 170.168 100.318 171.54 100.318C172.574 100.318 173.191 100.955 173.37 101.651H174.543C174.344 100.219 173.131 99.2642 171.521 99.2642C169.452 99.2642 168.08 100.895 168.08 103.222C168.08 105.509 169.393 107.159 171.54 107.159ZM176.258 107H177.432V99.3636H176.258V107ZM176.855 98.0909C177.312 98.0909 177.69 97.733 177.69 97.2955C177.69 96.858 177.312 96.5 176.855 96.5C176.398 96.5 176.02 96.858 176.02 97.2955C176.02 97.733 176.398 98.0909 176.855 98.0909ZM182.683 107.159C184.751 107.159 186.143 105.588 186.143 103.222C186.143 100.835 184.751 99.2642 182.683 99.2642C180.615 99.2642 179.223 100.835 179.223 103.222C179.223 105.588 180.615 107.159 182.683 107.159ZM182.683 106.105C181.112 106.105 180.396 104.753 180.396 103.222C180.396 101.69 181.112 100.318 182.683 100.318C184.254 100.318 184.97 101.69 184.97 103.222C184.97 104.753 184.254 106.105 182.683 106.105ZM189.108 102.406C189.108 101.074 189.933 100.318 191.056 100.318C192.145 100.318 192.806 101.029 192.806 102.227V107H193.98V102.148C193.98 100.199 192.941 99.2642 191.394 99.2642C190.241 99.2642 189.525 99.7812 189.167 100.557H189.068V99.3636H187.934V107H189.108V102.406ZM199.325 107.159C200.877 107.159 202.01 106.384 202.368 105.23L201.234 104.912C200.936 105.707 200.245 106.105 199.325 106.105C197.948 106.105 196.999 105.215 196.944 103.58H202.487V103.082C202.487 100.239 200.797 99.2642 199.206 99.2642C197.138 99.2642 195.766 100.895 195.766 103.241C195.766 105.588 197.118 107.159 199.325 107.159ZM196.944 102.565C197.024 101.377 197.864 100.318 199.206 100.318C200.479 100.318 201.294 101.273 201.294 102.565H196.944ZM208.21 107H209.383V99.3636H208.21V107ZM208.806 98.0909C209.264 98.0909 209.641 97.733 209.641 97.2955C209.641 96.858 209.264 96.5 208.806 96.5C208.349 96.5 207.971 96.858 207.971 97.2955C207.971 97.733 208.349 98.0909 208.806 98.0909ZM214.853 99.3636H213.222V97.5341H212.049V99.3636H210.896V100.358H212.049V105.131C212.049 106.463 213.123 107.099 214.117 107.099C214.555 107.099 214.833 107.02 214.992 106.96L214.753 105.906C214.654 105.926 214.495 105.966 214.236 105.966C213.719 105.966 213.222 105.807 213.222 104.812V100.358H214.853V99.3636ZM219.737 107.159C221.289 107.159 222.422 106.384 222.78 105.23L221.647 104.912C221.348 105.707 220.657 106.105 219.737 106.105C218.36 106.105 217.411 105.215 217.356 103.58H222.899V103.082C222.899 100.239 221.209 99.2642 219.618 99.2642C217.55 99.2642 216.178 100.895 216.178 103.241C216.178 105.588 217.53 107.159 219.737 107.159ZM217.356 102.565C217.436 101.377 218.276 100.318 219.618 100.318C220.891 100.318 221.706 101.273 221.706 102.565H217.356ZM225.858 102.406C225.858 101.074 226.683 100.318 227.806 100.318C228.895 100.318 229.556 101.029 229.556 102.227V107H230.73V102.148C230.73 100.199 229.691 99.2642 228.144 99.2642C226.991 99.2642 226.275 99.7812 225.917 100.557H225.818V99.3636H224.684V107H225.858V102.406ZM238.283 101.074C237.915 99.9901 237.09 99.2642 235.578 99.2642C233.967 99.2642 232.774 100.179 232.774 101.472C232.774 102.526 233.401 103.232 234.803 103.56L236.075 103.858C236.846 104.037 237.209 104.405 237.209 104.932C237.209 105.588 236.513 106.125 235.419 106.125C234.46 106.125 233.858 105.712 233.649 104.892L232.536 105.17C232.809 106.468 233.878 107.159 235.439 107.159C237.214 107.159 238.422 106.19 238.422 104.872C238.422 103.808 237.756 103.137 236.394 102.804L235.26 102.526C234.355 102.302 233.948 101.999 233.948 101.412C233.948 100.756 234.644 100.278 235.578 100.278C236.602 100.278 237.025 100.845 237.229 101.372L238.283 101.074Z" fill="#828282"/>
<path d="M0.5 0.5H374.5V153C374.5 155.485 372.485 157.5 370 157.5H5C2.51471 157.5 0.5 155.485 0.5 153V0.5Z" stroke="#F5F5F5"/>
</svg>
